# xmcd
#
# Track frame offsets:
#	150
#	25038
#	48680
#	74401
#	98199
#	117957
#	135635
#
# Disc length: 1964 seconds
#
# Revision: 1
# Processed by: cddbd v1.5.1PL0 Copyright (c) Steve Scherf et al.
# Submitted via: CDex 1.50Beta5
#
DISCID=5f07aa07
DTITLE=サウンドトラック - ラヂオ天地 Special issue
DYEAR=1900
DGENRE=Soundtrack
TTITLE0=山田 西南/山田西南の人生後悔日誌 「緊張しすぎてバリバリ。。。」
TTITLE1=山田 西南/山田西南の人生後悔日誌 「いきなりアッハァーン
TTITLE2=山田 西南/山田西南の人生後悔日誌 「姉さん!ついていきます。」
TTITLE3=山田 西南/山田西南の人生後悔日誌 「寝たらヤバイ!もぎもぎドキドキ!?」
TTITLE4=山田 西南/山田西南の人生後悔日誌 「向こうは知らなくても・・・。」
TTITLE5=雨音 カウナック/雨音・カウナックの色恋指南 「其の一、GPに就職するには」
TTITLE6=雨音 カウナック/雨音・カウナックの色恋指南 「彼女を食事に誘うには」
EXTD=
EXTT0=
EXTT1=
EXTT2=
EXTT3=
EXTT4=
EXTT5=
EXTT6=
PLAYORDER=
